<?xml version="1.0" encoding="UTF-8" standalone="no"?>
<svg
   xmlns:osb="http://www.openswatchbook.org/uri/2009/osb"
   xmlns:dc="http://purl.org/dc/elements/1.1/"
   xmlns:cc="http://creativecommons.org/ns#"
   xmlns:rdf="http://www.w3.org/1999/02/22-rdf-syntax-ns#"
   xmlns:svg="http://www.w3.org/2000/svg"
   xmlns="http://www.w3.org/2000/svg"
   xmlns:sodipodi="http://sodipodi.sourceforge.net/DTD/sodipodi-0.dtd"
   xmlns:inkscape="http://www.inkscape.org/namespaces/inkscape"
   sodipodi:docname="highlights.svg"
   inkscape:version="1.0 (4035a4f, 2020-05-01)"
   id="svg5091"
   version="1.1"
   viewBox="0 0 210 297"
   height="297mm"
   width="210mm">
  <defs
     id="defs5085">
    <linearGradient
       id="linearGradient890"
       osb:paint="solid">
      <stop
         style="stop-color:#ffffff;stop-opacity:1;"
         offset="0"
         id="stop888" />
    </linearGradient>
    <inkscape:path-effect
       end_linecap_type="zerowidth"
       scale_width="1"
       miter_limit="4"
       linejoin_type="extrp_arc"
       start_linecap_type="zerowidth"
       interpolator_beta="0.2"
       interpolator_type="CubicBezierJohan"
       sort_points="true"
       offset_points="34,0.49999938"
       lpeversion="1"
       is_visible="true"
       id="path-effect5788"
       effect="powerstroke" />
    <inkscape:path-effect
       end_linecap_type="zerowidth"
       scale_width="1"
       miter_limit="4"
       linejoin_type="extrp_arc"
       start_linecap_type="zerowidth"
       interpolator_beta="0.2"
       interpolator_type="CubicBezierJohan"
       sort_points="true"
       offset_points="13,0.49999938"
       lpeversion="1"
       is_visible="true"
       id="path-effect5790"
       effect="powerstroke" />
    <inkscape:path-effect
       end_linecap_type="zerowidth"
       scale_width="1"
       miter_limit="4"
       linejoin_type="extrp_arc"
       start_linecap_type="zerowidth"
       interpolator_beta="0.2"
       interpolator_type="CubicBezierJohan"
       sort_points="true"
       offset_points="11,0.49999938"
       lpeversion="1"
       is_visible="true"
       id="path-effect5792"
       effect="powerstroke" />
    <inkscape:path-effect
       end_linecap_type="zerowidth"
       scale_width="1"
       miter_limit="4"
       linejoin_type="extrp_arc"
       start_linecap_type="zerowidth"
       interpolator_beta="0.2"
       interpolator_type="CubicBezierJohan"
       sort_points="true"
       offset_points="11,0.49999938"
       lpeversion="1"
       is_visible="true"
       id="path-effect5794"
       effect="powerstroke" />
    <inkscape:path-effect
       end_linecap_type="zerowidth"
       scale_width="1"
       miter_limit="4"
       linejoin_type="extrp_arc"
       start_linecap_type="zerowidth"
       interpolator_beta="0.2"
       interpolator_type="CubicBezierJohan"
       sort_points="true"
       offset_points="17,0.49999938"
       lpeversion="1"
       is_visible="true"
       id="path-effect5796"
       effect="powerstroke" />
    <inkscape:path-effect
       end_linecap_type="zerowidth"
       scale_width="1"
       miter_limit="4"
       linejoin_type="extrp_arc"
       start_linecap_type="zerowidth"
       interpolator_beta="0.2"
       interpolator_type="CubicBezierJohan"
       sort_points="true"
       offset_points="15,0.49999938"
       lpeversion="1"
       is_visible="true"
       id="path-effect5798"
       effect="powerstroke" />
    <inkscape:path-effect
       end_linecap_type="zerowidth"
       scale_width="1"
       miter_limit="4"
       linejoin_type="extrp_arc"
       start_linecap_type="zerowidth"
       interpolator_beta="0.2"
       interpolator_type="CubicBezierJohan"
       sort_points="true"
       offset_points="15,0.49999938"
       lpeversion="1"
       is_visible="true"
       id="path-effect5800"
       effect="powerstroke" />
    <inkscape:path-effect
       end_linecap_type="zerowidth"
       scale_width="1"
       miter_limit="4"
       linejoin_type="extrp_arc"
       start_linecap_type="zerowidth"
       interpolator_beta="0.2"
       interpolator_type="CubicBezierJohan"
       sort_points="true"
       offset_points="17,0.49999938"
       lpeversion="1"
       is_visible="true"
       id="path-effect5802"
       effect="powerstroke" />
    <inkscape:path-effect
       end_linecap_type="zerowidth"
       scale_width="1"
       miter_limit="4"
       linejoin_type="extrp_arc"
       start_linecap_type="zerowidth"
       interpolator_beta="0.2"
       interpolator_type="CubicBezierJohan"
       sort_points="true"
       offset_points="7,0.49999938"
       lpeversion="1"
       is_visible="true"
       id="path-effect5804"
       effect="powerstroke" />
    <inkscape:path-effect
       end_linecap_type="zerowidth"
       scale_width="1"
       miter_limit="4"
       linejoin_type="extrp_arc"
       start_linecap_type="zerowidth"
       interpolator_beta="0.2"
       interpolator_type="CubicBezierJohan"
       sort_points="true"
       offset_points="13,0.49999938"
       lpeversion="1"
       is_visible="true"
       id="path-effect5806"
       effect="powerstroke" />
    <inkscape:path-effect
       end_linecap_type="zerowidth"
       scale_width="1"
       miter_limit="4"
       linejoin_type="extrp_arc"
       start_linecap_type="zerowidth"
       interpolator_beta="0.2"
       interpolator_type="CubicBezierJohan"
       sort_points="true"
       offset_points="12,0.49999938"
       lpeversion="1"
       is_visible="true"
       id="path-effect5808"
       effect="powerstroke" />
    <inkscape:path-effect
       end_linecap_type="zerowidth"
       scale_width="1"
       miter_limit="4"
       linejoin_type="extrp_arc"
       start_linecap_type="zerowidth"
       interpolator_beta="0.2"
       interpolator_type="CubicBezierJohan"
       sort_points="true"
       offset_points="4,0.49999938"
       lpeversion="1"
       is_visible="true"
       id="path-effect5810"
       effect="powerstroke" />
    <inkscape:path-effect
       end_linecap_type="zerowidth"
       scale_width="1"
       miter_limit="4"
       linejoin_type="extrp_arc"
       start_linecap_type="zerowidth"
       interpolator_beta="0.2"
       interpolator_type="CubicBezierJohan"
       sort_points="true"
       offset_points="12,0.1322915"
       lpeversion="1"
       is_visible="true"
       id="path-effect5812"
       effect="powerstroke" />
    <inkscape:path-effect
       effect="powerstroke"
       id="path-effect5780"
       is_visible="true"
       lpeversion="1"
       offset_points="18,0.49999938"
       sort_points="true"
       interpolator_type="CubicBezierJohan"
       interpolator_beta="0.2"
       start_linecap_type="zerowidth"
       linejoin_type="extrp_arc"
       miter_limit="4"
       scale_width="1"
       end_linecap_type="zerowidth" />
    <inkscape:path-effect
       effect="powerstroke"
       id="path-effect5782"
       is_visible="true"
       lpeversion="1"
       offset_points="12,0.49999938"
       sort_points="true"
       interpolator_type="CubicBezierJohan"
       interpolator_beta="0.2"
       start_linecap_type="zerowidth"
       linejoin_type="extrp_arc"
       miter_limit="4"
       scale_width="1"
       end_linecap_type="zerowidth" />
    <inkscape:path-effect
       effect="powerstroke"
       id="path-effect5784"
       is_visible="true"
       lpeversion="1"
       offset_points="10,0.49999938"
       sort_points="true"
       interpolator_type="CubicBezierJohan"
       interpolator_beta="0.2"
       start_linecap_type="zerowidth"
       linejoin_type="extrp_arc"
       miter_limit="4"
       scale_width="1"
       end_linecap_type="zerowidth" />
    <inkscape:path-effect
       end_linecap_type="zerowidth"
       scale_width="1"
       miter_limit="4"
       linejoin_type="extrp_arc"
       start_linecap_type="zerowidth"
       interpolator_beta="0.2"
       interpolator_type="CubicBezierJohan"
       sort_points="true"
       offset_points="13,0.49999938"
       lpeversion="1"
       is_visible="true"
       id="path-effect5786"
       effect="powerstroke" />
    <inkscape:path-effect
       effect="powerstroke"
       id="path-effect6293"
       is_visible="true"
       lpeversion="1"
       offset_points="18,0.1322915"
       sort_points="true"
       interpolator_type="CubicBezierJohan"
       interpolator_beta="0.2"
       start_linecap_type="zerowidth"
       linejoin_type="extrp_arc"
       miter_limit="4"
       scale_width="1"
       end_linecap_type="zerowidth" />
    <inkscape:path-effect
       effect="powerstroke"
       id="path-effect6295"
       is_visible="true"
       lpeversion="1"
       offset_points="12,0.1322915"
       sort_points="true"
       interpolator_type="CubicBezierJohan"
       interpolator_beta="0.2"
       start_linecap_type="zerowidth"
       linejoin_type="extrp_arc"
       miter_limit="4"
       scale_width="1"
       end_linecap_type="zerowidth" />
    <inkscape:path-effect
       effect="powerstroke"
       id="path-effect6297"
       is_visible="true"
       lpeversion="1"
       offset_points="10,0.1322915"
       sort_points="true"
       interpolator_type="CubicBezierJohan"
       interpolator_beta="0.2"
       start_linecap_type="zerowidth"
       linejoin_type="extrp_arc"
       miter_limit="4"
       scale_width="1"
       end_linecap_type="zerowidth" />
    <inkscape:path-effect
       end_linecap_type="zerowidth"
       scale_width="1"
       miter_limit="4"
       linejoin_type="extrp_arc"
       start_linecap_type="zerowidth"
       interpolator_beta="0.2"
       interpolator_type="CubicBezierJohan"
       sort_points="true"
       offset_points="13,0.1322915"
       lpeversion="1"
       is_visible="true"
       id="path-effect6299"
       effect="powerstroke" />
    <inkscape:path-effect
       end_linecap_type="zerowidth"
       scale_width="1"
       miter_limit="4"
       linejoin_type="extrp_arc"
       start_linecap_type="zerowidth"
       interpolator_beta="0.2"
       interpolator_type="CubicBezierJohan"
       sort_points="true"
       offset_points="34,0.1322915"
       lpeversion="1"
       is_visible="true"
       id="path-effect6301"
       effect="powerstroke" />
    <inkscape:path-effect
       end_linecap_type="zerowidth"
       scale_width="1"
       miter_limit="4"
       linejoin_type="extrp_arc"
       start_linecap_type="zerowidth"
       interpolator_beta="0.2"
       interpolator_type="CubicBezierJohan"
       sort_points="true"
       offset_points="13,0.1322915"
       lpeversion="1"
       is_visible="true"
       id="path-effect6303"
       effect="powerstroke" />
    <inkscape:path-effect
       end_linecap_type="zerowidth"
       scale_width="1"
       miter_limit="4"
       linejoin_type="extrp_arc"
       start_linecap_type="zerowidth"
       interpolator_beta="0.2"
       interpolator_type="CubicBezierJohan"
       sort_points="true"
       offset_points="11,0.1322915"
       lpeversion="1"
       is_visible="true"
       id="path-effect6305"
       effect="powerstroke" />
    <inkscape:path-effect
       end_linecap_type="zerowidth"
       scale_width="1"
       miter_limit="4"
       linejoin_type="extrp_arc"
       start_linecap_type="zerowidth"
       interpolator_beta="0.2"
       interpolator_type="CubicBezierJohan"
       sort_points="true"
       offset_points="11,0.1322915"
       lpeversion="1"
       is_visible="true"
       id="path-effect6307"
       effect="powerstroke" />
    <inkscape:path-effect
       end_linecap_type="zerowidth"
       scale_width="1"
       miter_limit="4"
       linejoin_type="extrp_arc"
       start_linecap_type="zerowidth"
       interpolator_beta="0.2"
       interpolator_type="CubicBezierJohan"
       sort_points="true"
       offset_points="17,0.1322915"
       lpeversion="1"
       is_visible="true"
       id="path-effect6309"
       effect="powerstroke" />
    <inkscape:path-effect
       end_linecap_type="zerowidth"
       scale_width="1"
       miter_limit="4"
       linejoin_type="extrp_arc"
       start_linecap_type="zerowidth"
       interpolator_beta="0.2"
       interpolator_type="CubicBezierJohan"
       sort_points="true"
       offset_points="15,0.1322915"
       lpeversion="1"
       is_visible="true"
       id="path-effect6311"
       effect="powerstroke" />
    <inkscape:path-effect
       end_linecap_type="zerowidth"
       scale_width="1"
       miter_limit="4"
       linejoin_type="extrp_arc"
       start_linecap_type="zerowidth"
       interpolator_beta="0.2"
       interpolator_type="CubicBezierJohan"
       sort_points="true"
       offset_points="15,0.1322915"
       lpeversion="1"
       is_visible="true"
       id="path-effect6313"
       effect="powerstroke" />
    <inkscape:path-effect
       end_linecap_type="zerowidth"
       scale_width="1"
       miter_limit="4"
       linejoin_type="extrp_arc"
       start_linecap_type="zerowidth"
       interpolator_beta="0.2"
       interpolator_type="CubicBezierJohan"
       sort_points="true"
       offset_points="17,0.1322915"
       lpeversion="1"
       is_visible="true"
       id="path-effect6315"
       effect="powerstroke" />
    <inkscape:path-effect
       end_linecap_type="zerowidth"
       scale_width="1"
       miter_limit="4"
       linejoin_type="extrp_arc"
       start_linecap_type="zerowidth"
       interpolator_beta="0.2"
       interpolator_type="CubicBezierJohan"
       sort_points="true"
       offset_points="7,0.1322915"
       lpeversion="1"
       is_visible="true"
       id="path-effect6317"
       effect="powerstroke" />
    <inkscape:path-effect
       end_linecap_type="zerowidth"
       scale_width="1"
       miter_limit="4"
       linejoin_type="extrp_arc"
       start_linecap_type="zerowidth"
       interpolator_beta="0.2"
       interpolator_type="CubicBezierJohan"
       sort_points="true"
       offset_points="13,0.1322915"
       lpeversion="1"
       is_visible="true"
       id="path-effect6319"
       effect="powerstroke" />
    <inkscape:path-effect
       end_linecap_type="zerowidth"
       scale_width="1"
       miter_limit="4"
       linejoin_type="extrp_arc"
       start_linecap_type="zerowidth"
       interpolator_beta="0.2"
       interpolator_type="CubicBezierJohan"
       sort_points="true"
       offset_points="12,0.1322915"
       lpeversion="1"
       is_visible="true"
       id="path-effect6321"
       effect="powerstroke" />
    <inkscape:path-effect
       end_linecap_type="zerowidth"
       scale_width="1"
       miter_limit="4"
       linejoin_type="extrp_arc"
       start_linecap_type="zerowidth"
       interpolator_beta="0.2"
       interpolator_type="CubicBezierJohan"
       sort_points="true"
       offset_points="4,0.1322915"
       lpeversion="1"
       is_visible="true"
       id="path-effect6323"
       effect="powerstroke" />
    <inkscape:path-effect
       end_linecap_type="zerowidth"
       scale_width="1"
       miter_limit="4"
       linejoin_type="extrp_arc"
       start_linecap_type="zerowidth"
       interpolator_beta="0.2"
       interpolator_type="CubicBezierJohan"
       sort_points="true"
       offset_points="12,0.1322915"
       lpeversion="1"
       is_visible="true"
       id="path-effect6325"
       effect="powerstroke" />
    <filter
       inkscape:collect="always"
       style="color-interpolation-filters:sRGB"
       id="filter3513"
       x="-0.0001818516"
       width="1.0003637"
       y="-0.00021852597"
       height="1.0004371">
      <feGaussianBlur
         inkscape:collect="always"
         stdDeviation="0.0066049435"
         id="feGaussianBlur3515" />
    </filter>
    <filter
       inkscape:collect="always"
       style="color-interpolation-filters:sRGB"
       id="filter3525"
       x="-0.0028547295"
       width="1.0057095"
       y="-0.0027310767"
       height="1.0054622">
      <feGaussianBlur
         inkscape:collect="always"
         stdDeviation="0.11276997"
         id="feGaussianBlur3527" />
    </filter>
    <filter
       inkscape:collect="always"
       style="color-interpolation-filters:sRGB"
       id="filter3557"
       x="-0.0010464822"
       width="1.002093"
       y="-0.0015233818"
       height="1.0030468">
      <feGaussianBlur
         inkscape:collect="always"
         stdDeviation="0.0089754455"
         id="feGaussianBlur3559" />
    </filter>
    <filter
       inkscape:collect="always"
       style="color-interpolation-filters:sRGB"
       id="filter3529"
       x="-0.0010263217"
       width="1.0020525"
       y="-0.00279414"
       height="1.0055883">
      <feGaussianBlur
         inkscape:collect="always"
         stdDeviation="0.016449714"
         id="feGaussianBlur3531" />
    </filter>
    <filter
       inkscape:collect="always"
       style="color-interpolation-filters:sRGB"
       id="filter3701"
       x="-0.00040899313"
       width="1.000818"
       y="-0.0011837106"
       height="1.0023674">
      <feGaussianBlur
         inkscape:collect="always"
         stdDeviation="0.0065782023"
         id="feGaussianBlur3703" />
    </filter>
    <filter
       inkscape:collect="always"
       style="color-interpolation-filters:sRGB"
       id="filter3697"
       x="-0.0045289285"
       width="1.0090579"
       y="-0.0024979927"
       height="1.0049959">
      <feGaussianBlur
         inkscape:collect="always"
         stdDeviation="0.048646772"
         id="feGaussianBlur3699" />
    </filter>
    <filter
       inkscape:collect="always"
       style="color-interpolation-filters:sRGB"
       id="filter3621"
       x="-0.0003329484"
       width="1.0006659"
       y="-0.00029030963"
       height="1.0005805">
      <feGaussianBlur
         inkscape:collect="always"
         stdDeviation="0.0056858111"
         id="feGaussianBlur3623" />
    </filter>
    <filter
       inkscape:collect="always"
       style="color-interpolation-filters:sRGB"
       id="filter3625"
       x="-0.00028192918"
       width="1.0005639"
       y="-0.0010743056"
       height="1.0021486">
      <feGaussianBlur
         inkscape:collect="always"
         stdDeviation="0.0042350037"
         id="feGaussianBlur3627" />
    </filter>
  </defs>
  <sodipodi:namedview
     inkscape:snap-nodes="false"
     inkscape:object-nodes="false"
     inkscape:snap-others="false"
     inkscape:snap-to-guides="false"
     inkscape:snap-grids="false"
     inkscape:lockguides="false"
     inkscape:window-maximized="0"
     inkscape:window-y="37"
     inkscape:window-x="880"
     inkscape:window-height="1174"
     inkscape:window-width="1252"
     showgrid="false"
     inkscape:document-rotation="0"
     inkscape:current-layer="layer1"
     inkscape:document-units="mm"
     inkscape:cy="104.21028"
     inkscape:cx="86.810085"
     inkscape:zoom="3.0545478"
     inkscape:pageshadow="2"
     inkscape:pageopacity="0.0"
     borderopacity="1.0"
     bordercolor="#666666"
     pagecolor="#ffffff"
     id="base" />
  <metadata
     id="metadata5088">
    <rdf:RDF>
      <cc:Work
         rdf:about="">
        <dc:format>image/svg+xml</dc:format>
        <dc:type
           rdf:resource="http://purl.org/dc/dcmitype/StillImage" />
        <dc:title></dc:title>
      </cc:Work>
    </rdf:RDF>
  </metadata>
  <g
     id="layer1"
     inkscape:groupmode="layer"
     inkscape:label="Layer 1">
    <g
       transform="translate(-45.248307,-31.733228)"
       style="display:inline;mix-blend-mode:normal"
       id="g6726">
      <path
         style="fill:#ffccaa;fill-opacity:1;stroke:#000000;stroke-width:0.140377;filter:url(#filter3513)"
         d="m 227.87281,202.84872 c -11.87905,-0.71429 -22.81917,-5.39984 -30.43358,-13.03441 -2.09986,-2.10541 -3.15645,-3.38806 -4.72162,-5.73181 -2.53909,-3.80211 -4.23612,-8.08374 -5.05168,-12.74543 -0.34593,-1.97734 -0.34593,-7.41584 0,-9.39319 1.5399,-8.80196 6.3421,-16.37349 14.07969,-22.19916 6.78569,-5.10897 15.48647,-8.35166 24.61822,-9.17493 2.06124,-0.18584 7.05229,-0.18831 9.0543,-0.004 6.53439,0.59997 12.38842,2.22654 17.89803,4.97305 4.47521,2.23087 7.72256,4.55791 11.16763,8.00267 3.00094,3.00066 5.32672,6.20393 6.9386,9.55645 4.83859,10.0637 4.07765,21.37286 -2.0683,30.73915 -1.58278,2.41211 -3.08754,4.2191 -5.32711,6.39701 -7.68699,7.47538 -18.3741,11.93755 -30.22318,12.61905 -2.69853,0.1552 -3.29065,0.15481 -5.931,-0.004 z m -4.95728,-14.24109 c 4.35489,-0.12268 6.01381,-0.36919 6.1885,-0.9196 0.0658,-0.20739 0.16812,-0.25186 0.42886,-0.18642 0.37856,0.095 1.04225,-0.25633 1.04225,-0.55175 0,-0.12042 0.15361,-0.16121 0.46859,-0.12444 0.53578,0.0625 0.9292,-0.23607 0.94557,-0.7177 0.007,-0.19699 0.28704,-0.52309 0.78772,-0.9163 l 0.77732,-0.61048 0.61605,0.60461 c 0.33883,0.33254 0.61605,0.7178 0.61605,0.85614 0,0.36816 0.50616,0.81303 0.92505,0.81303 0.19994,0 0.4689,0.13013 0.59769,0.28918 0.14325,0.17691 0.41086,0.2942 0.68929,0.30211 0.29018,0.008 0.45513,0.0841 0.45513,0.20931 0,0.53717 2.05931,0.83956 6.66004,0.97797 2.92609,0.088 2.98828,0.084 3.28501,-0.21272 0.2212,-0.22121 0.30245,-0.47433 0.30245,-0.94223 v -0.63976 l -0.5966,0.0432 c -0.46064,0.0333 -0.62818,0.11515 -0.73517,0.35902 -0.12624,0.28775 -0.23239,0.31552 -1.1932,0.31218 -1.29255,-0.004 -5.18699,-0.23813 -6.00291,-0.36013 -0.44999,-0.0673 -0.5966,-0.15183 -0.5966,-0.344 0,-0.37816 -0.38695,-0.69597 -0.84735,-0.69597 -0.2625,0 -0.45932,-0.0993 -0.55642,-0.28076 -0.0945,-0.17657 -0.29392,-0.28075 -0.53744,-0.28075 -0.28367,0 -0.62016,-0.22656 -1.2586,-0.84742 -1.11838,-1.08759 -1.27425,-1.34723 -1.19108,-1.98397 0.0657,-0.50307 0.0843,-0.51731 0.79023,-0.60638 0.39761,-0.0502 1.18402,-0.21381 1.74757,-0.36365 6.20506,-1.64983 5.70037,-6.75142 -0.79795,-8.06598 -1.59693,-0.32304 -4.99293,-0.2251 -6.34076,0.18288 -2.8065,0.8495 -4.25166,2.19365 -4.26382,3.96577 -0.01,1.40506 0.87515,2.46844 2.824,3.394 0.92867,0.44105 3.10419,0.95083 4.07068,0.95387 0.55926,0.002 0.59,0.0239 0.63523,0.45806 0.0687,0.65945 -0.2068,1.12827 -1.00907,1.71719 -0.38879,0.2854 -0.79715,0.64777 -0.90746,0.80526 -0.13173,0.18807 -0.38195,0.29736 -0.72908,0.31844 -0.3606,0.0219 -0.59193,0.12761 -0.72815,0.33276 -0.13534,0.20383 -0.34537,0.30068 -0.65208,0.30068 -0.44541,0 -0.7936,0.2618 -0.95398,0.7173 -0.10531,0.29909 -0.85956,0.39096 -4.51089,0.54942 -4.1505,0.18013 -3.92539,0.18998 -4.08719,-0.1788 -0.10599,-0.24159 -0.27484,-0.3258 -0.71819,-0.35819 -0.568,-0.0415 -0.58158,-0.0319 -0.67737,0.47876 -0.17185,0.91601 0.49545,1.48777 1.60793,1.37769 0.27023,-0.0267 1.8138,-0.0859 3.43015,-0.13139 z m -4.64288,-15.8382 c 2.19976,-0.85113 4.15981,-2.62684 5.30948,-4.81011 0.67941,-1.29023 1.27114,-3.09244 1.43317,-4.36495 l 0.0929,-0.72988 -0.50176,-0.0941 c -0.27596,-0.0518 -0.53256,-0.0633 -0.57021,-0.0257 -0.0376,0.0376 -0.13262,0.47163 -0.21106,0.9644 -0.19225,1.20774 -0.83442,3.03795 -1.41083,4.0209 -0.66278,1.13024 -2.52787,2.96216 -3.57213,3.50859 -2.65378,1.38867 -5.76928,1.12745 -8.16985,-0.68499 -0.41476,-0.31315 -0.73349,-0.58967 -0.70828,-0.61448 0.0252,-0.0248 0.39327,0.0187 0.81791,0.0966 0.54267,0.0996 1.0628,0.094 1.75057,-0.0189 2.66414,-0.4372 4.69693,-2.45235 5.11927,-5.07486 0.0767,-0.476 0.1711,-0.89718 0.20987,-0.93595 0.0388,-0.0388 0.26406,0.01 0.50063,0.10767 0.23657,0.098 0.45863,0.14967 0.49346,0.11484 0.0348,-0.0348 -0.18728,-0.97508 -0.49358,-2.08945 -0.30631,-1.11437 -0.55793,-2.06143 -0.55915,-2.10458 -10e-4,-0.0432 0.63134,-0.83129 1.40571,-1.75141 1.5999,-1.90101 1.6028,-1.86321 -0.14456,-1.88125 -0.57905,-0.006 -1.4697,-0.0502 -1.97921,-0.0984 l -0.92639,-0.0875 -1.16644,-1.89374 c -1.35329,-2.19708 -1.12157,-2.25496 -2.1665,0.54118 l -0.66119,1.76927 -2.17814,0.52692 -2.17814,0.52691 0.43292,0.44667 0.43293,0.44666 -0.39763,0.23489 c -0.21869,0.12918 -0.66894,0.49819 -1.00056,0.82 l -0.60293,0.58513 0.0985,-0.54476 c 0.172,-0.95139 0.87329,-2.83606 1.36232,-3.66118 0.65088,-1.09818 2.17748,-2.68087 3.15326,-3.26911 1.30877,-0.78898 2.45706,-1.11681 3.92647,-1.121 2.05282,-0.006 3.73157,0.64439 5.219,2.02149 l 0.83234,0.7706 0.46064,-0.38455 0.46063,-0.38456 -0.86051,-0.79668 c -1.74377,-1.61443 -3.6714,-2.37156 -6.05153,-2.37692 -1.24106,-0.003 -1.66029,0.0583 -2.65329,0.38689 -3.23967,1.07191 -5.7381,3.91453 -6.77535,7.70875 -0.26705,0.9769 -0.30834,1.49745 -0.31727,4.00074 -0.0122,3.40887 0.007,3.47841 1.59291,5.75909 1.52113,2.18762 2.4979,3.1174 4.20794,4.00553 1.39792,0.72603 2.28346,0.90498 4.22582,0.85398 1.49457,-0.0392 1.89749,-0.10132 2.71781,-0.41872 z m 33.359,-1.20502 c 2.65394,-0.90986 5.06442,-3.32317 6.15979,-6.16705 0.4094,-1.06291 0.83107,-2.76862 0.71086,-2.87549 -0.0343,-0.0305 -0.28405,-0.0954 -0.55497,-0.14428 l -0.49259,-0.0888 -0.25314,1.12624 c -0.28965,1.28867 -1.24247,3.2813 -2.01221,4.2081 -2.62544,3.16116 -6.38445,4.09093 -9.70019,2.39929 -0.44341,-0.22622 -0.93254,-0.51415 -1.08695,-0.63984 -0.27088,-0.2205 -0.2655,-0.22561 0.15317,-0.14547 0.69417,0.13287 2.30146,-0.18246 3.23072,-0.63382 1.7238,-0.83728 2.99019,-2.58205 3.32942,-4.5871 l 0.16515,-0.97613 0.47255,0.19295 c 0.25991,0.10613 0.50063,0.16488 0.53494,0.13057 0.0343,-0.0343 -0.19306,-0.99703 -0.50528,-2.13937 -0.47119,-1.72394 -0.53702,-2.11421 -0.38732,-2.29599 0.0992,-0.12045 0.7389,-0.87295 1.42156,-1.67222 1.41688,-1.6589 1.41336,-1.69975 -0.1466,-1.70312 -0.5481,-10e-4 -1.4643,-0.0417 -2.03599,-0.09 l -1.03943,-0.0879 -1.10891,-1.81224 c -0.6099,-0.99673 -1.15447,-1.84039 -1.21015,-1.8748 -0.0557,-0.0344 -0.43332,0.81454 -0.8392,1.88657 -0.40587,1.07203 -0.77703,2.00825 -0.82478,2.0805 -0.0478,0.0722 -1.06188,0.37293 -2.2536,0.66819 l -2.16676,0.53683 0.48224,0.41101 c 0.45773,0.39013 0.46836,0.41929 0.20911,0.57364 -0.15022,0.0894 -0.58465,0.44688 -0.96539,0.79431 l -0.69227,0.6317 0.10493,-0.6317 c 0.64381,-3.87618 3.29352,-7.12103 6.59867,-8.08076 2.47119,-0.71757 5.26432,0.0541 7.4337,2.05378 l 0.59187,0.54557 0.39539,-0.41269 c 0.46826,-0.48876 0.45249,-0.518 -0.8266,-1.5325 -1.78652,-1.41698 -3.51694,-2.02475 -5.76946,-2.0264 -1.20071,-8.4e-4 -1.57876,0.0601 -2.6135,0.42138 -3.40722,1.1897 -5.89308,4.13997 -6.78224,8.04929 -0.13039,0.57329 -0.30017,2.16551 -0.37729,3.53825 -0.21475,3.8228 0.0654,4.59509 2.6039,7.17736 2.07751,2.11336 3.17813,2.83908 5.13366,3.38502 1.14382,0.31933 3.71335,0.21845 4.91319,-0.19289 z"
         id="path6697"
         transform="matrix(0.26458333,0,0,0.26458333,-5.8492451e-7,-3.1116019e-6)" />
      <path
         style="fill:#ffccaa;fill-opacity:1;stroke:#000000;stroke-width:0.140377;filter:url(#filter3525)"
         d="m 229.19526,292.97563 c -4.1435,-0.32491 -8.82462,-1.46849 -12.83888,-3.13649 -8.88066,-3.69008 -16.92351,-10.78072 -22.50794,-19.84319 -6.5244,-10.58785 -9.75246,-23.91247 -8.89117,-36.70047 0.97728,-14.51001 6.4612,-27.6484 15.59554,-37.3638 l 1.03454,-1.10035 0.80715,0.58165 c 4.74767,3.42129 11.38312,6.19159 18.19414,7.59604 5.21128,1.07459 12.47545,1.26542 17.91779,0.47072 8.2321,-1.20207 16.13617,-4.35684 22.0275,-8.79186 1.02811,-0.77397 1.13664,-0.82314 1.44842,-0.65628 0.72464,0.38781 4.113,4.22849 6.11473,6.93098 1.07249,1.44795 3.46806,5.12398 3.46806,5.32178 0,0.0365 -0.4407,-0.20539 -0.97934,-0.53749 -3.80082,-2.34336 -9.30676,-2.0484 -15.99505,0.85686 -9.78257,4.24936 -20.94416,13.91368 -30.02407,25.99652 -0.96446,1.28342 -2.54486,3.52564 -3.512,4.98271 l -1.75844,2.64921 -1.00334,-0.0909 c -0.55183,-0.05 -2.39506,-0.0904 -4.09606,-0.0897 l -3.09273,0.001 0.21532,-1.08551 c 0.15818,-0.79745 0.21788,-2.05406 0.22499,-4.73531 0.009,-3.24193 -0.026,-3.83568 -0.30985,-5.31321 -0.8952,-4.66021 -2.80036,-8.52959 -5.40802,-10.98371 -1.31167,-1.23445 -2.30326,-1.88046 -3.71397,-2.41965 -0.83707,-0.31994 -1.15709,-0.36239 -2.77125,-0.3676 -1.56041,-0.005 -1.95714,0.0412 -2.73735,0.31887 -5.7559,2.04867 -9.68599,9.63422 -9.68599,18.69516 0,8.38 3.37849,15.58645 8.51589,18.16474 0.53235,0.26716 1.28187,0.56414 1.6656,0.65995 0.38374,0.0958 1.13989,0.38584 1.68034,0.64451 2.69399,1.28939 7.46139,2.39975 11.41625,2.65893 l 1.39923,0.0917 -0.26639,0.77428 c -0.42462,1.23419 -1.33974,5.01235 -1.62175,6.69557 -0.37038,2.21067 -0.36944,7.24315 0.002,8.84374 1.05231,4.53873 3.57619,7.31676 7.60073,8.36611 1.70047,0.44338 4.4847,0.41755 6.80827,-0.0632 5.89908,-1.22043 12.4637,-4.71131 19.44217,-10.33881 4.91572,-3.96407 10.21932,-9.34016 14.54901,-14.74787 l 1.52429,-1.90381 1.85991,-0.16269 c 2.74515,-0.24013 4.45019,-0.77506 6.67398,-2.09388 0.62498,-0.37064 1.53217,-0.89499 2.01598,-1.16521 1.15902,-0.64736 2.95372,-2.44039 3.95233,-3.94867 2.62041,-3.95782 3.89697,-9.04985 3.70591,-14.78246 -0.11833,-3.5504 -0.71602,-6.52185 -1.82124,-9.05441 -0.57973,-1.32842 -0.58524,-1.35674 -0.52011,-2.67621 0.0362,-0.73347 0.0658,-2.22502 0.0658,-3.31456 0,-2.28948 -0.0248,-2.31044 0.98855,0.83639 5.0522,15.68923 3.82991,33.1152 -3.34433,47.67947 -7.53677,15.30025 -21.04375,25.58178 -36.04731,27.43926 -2.20324,0.27277 -5.92382,0.37133 -7.96752,0.21107 z"
         id="path6699"
         transform="scale(0.26458333)" />
      <path
         style="display:inline;fill:#ffccaa;fill-opacity:1;stroke:#000000;stroke-width:0.140377;filter:url(#filter3557)"
         d="m 258.21318,252.6203 c -1.21155,-0.17081 -3.44256,-0.9424 -4.43935,-1.53533 -2.06722,-1.22966 -3.49683,-3.18349 -3.66197,-5.00477 -0.30119,-3.32154 2.95397,-6.36626 7.77677,-7.27404 1.642,-0.30906 4.41872,-0.21329 6.00981,0.20728 4.25856,1.12568 7.06928,4.07521 6.75439,7.08796 -0.44878,4.29364 -6.33701,7.37932 -12.43965,6.5189 z"
         id="path6701"
         transform="scale(0.26458333)" />
      <path
         style="display:inline;fill:#ffccaa;fill-opacity:1;stroke:#000000;stroke-width:0.140377;filter:url(#filter3529)"
         d="m 209.99378,255.14911 c -7.2909,-0.63719 -13.32995,-3.03325 -14.61832,-5.79999 -0.41514,-0.89149 -0.41428,-1.36931 0.004,-2.25077 2.45443,-5.17173 18.4464,-7.65064 29.91533,-4.63716 6.73282,1.76905 9.74143,4.83805 7.50769,7.65837 -1.9087,2.40993 -7.3046,4.3543 -13.81209,4.97708 -2.39194,0.22891 -6.69089,0.25398 -8.99666,0.0525 z"
         id="path6703"
         transform="scale(0.26458333)" />
      <path
         style="display:inline;opacity:0.993569;fill:#ffccaa;fill-opacity:1;fill-rule:nonzero;stroke:#000000;stroke-width:0.198523"
         d="m 193.13899,248.96875 c -3.13448,-3.35101 -4.90027,-8.58858 -4.92665,-14.61304 -0.0132,-3.01383 0.26001,-5.25919 0.91429,-7.51405 1.33933,-4.61574 3.92396,-8.23691 6.96008,-9.75135 1.62499,-0.81056 4.01145,-0.93927 5.69631,-0.30721 2.5091,0.94125 4.53602,3.04536 6.21856,6.45534 2.21819,4.49562 2.97428,10.21784 2.0508,15.52087 -0.18058,1.03699 -0.2935,1.27186 -0.64496,1.34148 -0.23433,0.0464 -1.43962,0.23024 -2.67842,0.40849 -5.66534,0.81518 -10.51399,2.96739 -12.10853,5.3747 -0.70694,1.0673 -0.96539,2.37793 -0.64827,3.2876 0.12156,0.34871 0.18946,0.66557 0.15089,0.70414 -0.0386,0.0386 -0.48142,-0.36956 -0.9841,-0.90697 z"
         id="path6705"
         transform="scale(0.26458333)" />
      <path
         style="display:inline;opacity:0.996785;fill:#ffccaa;fill-opacity:1;stroke:#000000;stroke-width:0.198523;filter:url(#filter3701)"
         d="m 270.81453,304.08228 c -0.10919,-0.0501 -1.35988,-0.26684 -2.77932,-0.48167 -1.76091,-0.26651 -3.0538,-0.58947 -4.06971,-1.0166 -0.81891,-0.3443 -2.45493,-1.01344 -3.63561,-1.48698 -1.18067,-0.47354 -2.27503,-0.9675 -2.4319,-1.09769 -0.15687,-0.13019 -0.28896,-0.15877 -0.29354,-0.0635 -0.0206,0.42904 -0.77004,-1.27747 -0.77745,-1.77031 -0.0202,-1.34171 1.50433,-3.0938 3.70518,-4.25836 3.84988,-2.03713 9.37197,-3.11143 15.94024,-3.1011 8.48605,0.0134 15.71205,2.02114 18.42505,5.1195 0.64287,0.73419 0.64939,0.75993 0.29778,1.17471 -0.19771,0.23324 -0.53259,0.55343 -0.74417,0.71154 -0.21158,0.1581 -0.93959,0.79033 -1.6178,1.40495 -1.11821,1.01337 -1.51707,1.22197 -4.28059,2.23871 -1.67612,0.61666 -3.47288,1.1793 -3.9928,1.2503 -0.51992,0.071 -1.15526,0.29424 -1.41186,0.49609 -0.25661,0.20184 -0.85858,0.46617 -1.33771,0.58739 -0.84852,0.21467 -10.60014,0.47455 -10.99579,0.29303 z"
         id="path6707"
         transform="scale(0.26458333)" />
      <path
         style="display:inline;opacity:0.996785;fill:#ffccaa;fill-opacity:1;stroke:#000000;stroke-width:0.198523;filter:url(#filter3697)"
         d="m 270.51674,289.7904 c 0,-0.20057 2.31401,-3.55541 2.70755,-3.9254 0.75435,-0.7092 2.40202,-1.96351 3.97888,-3.02896 1.85456,-1.25308 2.94044,-2.43939 5.79541,-6.33139 2.332,-3.17906 3.23763,-4.72552 3.68944,-6.30008 0.67651,-2.35761 1.42408,-12.75583 1.07355,-14.93239 -0.26341,-1.63565 -0.78433,-3.11084 -1.95104,-5.52509 -1.20033,-2.48385 -1.93149,-3.59312 -3.44936,-5.23319 l -1.1588,-1.25209 0.89687,-0.1345 c 0.49328,-0.074 1.68475,-0.03 2.64772,0.0976 6.87514,0.91154 11.10142,6.45022 11.51827,15.09506 0.445,9.22862 -3.97306,20.76681 -11.28835,29.48061 l -1.66662,1.98523 -1.08628,-0.0381 c -3.73827,-0.13124 -9.96699,-0.12872 -10.76425,0.004 -0.51865,0.0866 -0.94299,0.10382 -0.94299,0.0383 z"
         id="path6709"
         transform="scale(0.26458333)" />
      <path
         style="display:inline;opacity:0.993569;fill:#ffccaa;fill-opacity:1;fill-rule:nonzero;stroke:#000000;stroke-width:0.198523;filter:url(#filter3621)"
         d="m 212.44887,294.10668 c -1.14614,-0.74999 -3.70673,-1.74086 -5.97446,-2.31194 -5.74331,-1.44632 -12.96696,-1.67322 -19.27683,-0.60549 l -1.82561,0.30892 -0.75518,-0.83431 c -8.39438,-9.27402 -13.25319,-22.36247 -11.6706,-31.43774 0.87766,-5.03289 3.29099,-8.59333 7.04423,-10.39251 1.73552,-0.83196 4.07253,-1.43097 4.34241,-1.11304 0.0826,0.0973 0.35188,1.24362 0.59831,2.54727 2.99364,15.83664 12.36693,29.95305 25.01031,37.66615 1.92121,1.17203 2.46531,1.75921 3.07936,3.3232 0.63366,1.61392 0.82093,3.42389 0.3498,3.38079 -0.0702,-0.006 -0.48499,-0.24552 -0.92174,-0.5313 z"
         id="path6711"
         transform="scale(0.26458333)" />
      <path
         style="display:inline;opacity:0.993569;fill:#ffccaa;fill-opacity:1;stroke:#000000;stroke-width:0.198523;filter:url(#filter3625)"
         d="m 186.83945,300.90795 c -2.39868,-0.38313 -5.27575,-1.10623 -6.052,-1.52105 -0.38054,-0.20336 -0.80488,-0.36975 -0.94298,-0.36975 -0.13811,0 -0.2511,-0.0772 -0.2511,-0.17155 0,-0.0943 -0.37967,-0.3175 -0.84372,-0.49589 -0.46405,-0.17838 -1.11173,-0.53994 -1.43929,-0.80346 l -0.59557,-0.47914 0.48486,-0.5177 c 1.73319,-1.85061 6.42343,-3.62315 11.57661,-4.37504 6.2183,-0.90731 13.62959,-0.42938 18.89038,1.21815 1.67086,0.52327 4.74717,1.94796 5.08491,2.35491 0.37353,0.45008 -6.3711,3.23339 -10.60448,4.37616 -3.23421,0.87304 -5.07804,1.07709 -9.55046,1.05687 -2.32115,-0.0105 -4.87291,-0.13128 -5.75716,-0.27251 z"
         id="path6713"
         transform="scale(0.26458333)" />
    </g>
  </g>
</svg>
